<svg width="1814" height="183" viewBox="0 0 1814 183" fill="none" xmlns="http://www.w3.org/2000/svg">
<g id="Group 1">
<g id="Subtract">
<path d="M411.184 0.544882C415.311 0.100137 424.761 -0.115654 433.011 0.0624598L434.777 0.106405C443.601 0.360338 452.196 1.10005 456.107 1.96383C459.972 2.81697 465.621 4.37181 468.664 5.42965C471.707 6.48761 476.907 8.7072 480.225 10.3759C483.572 12.0596 488.969 15.8569 492.237 18.8427C495.501 21.8154 499.318 26.0703 500.733 28.3261L500.734 28.3281C502.041 30.4268 503.867 34.3516 504.947 37.3457L505.153 37.9306C506.202 41.015 507.366 46.5711 508.497 57.0586L508.557 57.6123L455 57.6318L454.585 57.6328L453.759 53.2041C453.33 50.916 451.923 48.2698 449.814 45.8603L449.383 45.3818C448.38 44.2961 447.074 43.1749 445.781 42.247C444.481 41.3135 443.231 40.6029 442.342 40.3066C441.44 40.0061 439.716 39.7251 437.632 39.5214C435.563 39.3192 433.183 39.1972 431.001 39.2021C426.612 39.2222 421.268 39.7326 419.134 40.3242C417.02 40.9103 413.83 42.7548 412.093 44.3847L412.094 44.3857C409.884 46.4781 409 48.1961 409 50.0927C409 51.9368 409.951 53.8783 412.109 56.1152C414.196 58.2827 416.847 59.7701 421.24 61.1572L422.143 61.4326L422.144 61.4336C425.975 62.5779 436.529 65.1443 445.608 67.1543C454.691 69.1648 465.834 71.8872 470.39 73.2119C474.956 74.5396 481.845 77.2101 485.724 79.1445C489.621 81.0882 495.62 85.3275 499.092 88.5771C503.324 92.537 506.319 96.4374 508.184 100.481L508.472 101.123C509.925 104.458 511.484 109.613 512.062 113.009C512.68 116.634 512.902 122.747 512.548 126.638C512.207 130.502 511.423 135.707 510.815 138.21C510.205 140.724 508.341 145.708 506.663 149.304C504.644 153.605 501.436 158.014 497.433 161.987L497.432 161.986C493.503 165.894 488.392 169.574 483.229 172.227C478.815 174.494 472.704 177.099 469.643 178.012L469.642 178.011C466.588 178.931 459.813 180.326 454.575 181.127C449.317 181.921 439.961 182.581 433.75 182.581C427.544 182.591 418.075 182.101 412.694 181.499C407.311 180.896 398.629 179.312 393.377 177.977C388.445 176.722 381.191 174.112 376.65 171.997L375.779 171.581C370.173 168.818 365.974 165.815 362.04 161.739C358.939 158.527 355.244 153.628 353.805 150.82C352.387 148.035 350.524 143.05 349.656 139.719C348.782 136.366 347.95 130.472 347.5 119.613L347.479 119.093H401.451L401.497 119.541L401.758 122.041C401.886 123.218 402.355 125.577 402.87 127.612L403.093 128.461V128.463C403.374 129.512 403.923 130.787 404.587 131.991C405.251 133.197 406.012 134.298 406.7 135.016L406.702 135.018C407.387 135.735 408.512 136.559 409.789 137.304C411.063 138.046 412.452 138.689 413.646 139.055H413.648C416.088 139.812 420.774 140.697 424.05 141.024C427.301 141.35 433.561 141.153 437.935 140.576C440.119 140.288 442.443 139.868 444.422 139.423C446.418 138.974 448.016 138.509 448.784 138.142L448.786 138.141C449.553 137.778 450.401 137.169 451.144 136.476C451.89 135.779 452.493 135.031 452.802 134.41C453.462 133.07 454 130.886 454 129.593C454 129.025 453.732 128.139 453.243 127.15C452.822 126.299 452.262 125.421 451.646 124.677L451.378 124.366C449.815 122.625 447.005 120.957 443.549 119.769L442.849 119.539C439.981 118.627 431.369 116.433 422.627 114.385L418.889 113.519C408.983 111.248 396.137 107.875 390.348 106.019C384.627 104.184 378.12 101.365 374.427 99.121L373.727 98.6806C370.395 96.4996 365.325 92.2954 362.44 89.3095C359.55 86.328 356.034 81.3925 354.615 78.3007C353.219 75.2442 351.556 70.0254 350.919 66.6865C350.269 63.2625 350.009 56.8564 350.331 52.0586C350.633 47.362 351.748 41.0141 352.817 37.9277C353.877 34.8808 355.872 30.5661 357.266 28.3281L357.267 28.3261C358.682 26.0704 362.499 21.8156 365.764 18.8525C369.203 15.7266 375.135 11.8 379.784 9.58101L380.646 9.17769C385.104 7.13167 391.719 4.72517 395.875 3.6484C400.289 2.50486 406.837 1.15083 410.43 0.637655L410.431 0.636679L411.184 0.544882Z" fill="#FF721B"/>
<path fill-rule="evenodd" clip-rule="evenodd" d="M906.981 14.1748C909.192 20.365 923.551 59.8443 966.81 178.421L967.053 179.087L966.344 179.092L936.674 179.332C928.511 179.397 921.03 179.36 915.556 179.246C912.819 179.189 910.579 179.113 909.004 179.02C908.218 178.974 907.588 178.924 907.143 178.869C906.922 178.842 906.732 178.811 906.587 178.776C906.516 178.759 906.438 178.736 906.367 178.706C906.331 178.691 906.285 178.669 906.237 178.636C906.194 178.605 906.12 178.546 906.064 178.447C906.007 178.345 905.935 178.164 905.853 177.938C905.764 177.697 905.649 177.361 905.502 176.921C905.208 176.039 904.786 174.723 904.204 172.86C903.055 169.183 901.279 163.368 898.628 154.542L837.874 154.592L835.56 162.483C834.229 167.026 832.538 172.659 830.478 179.291L830.368 179.643H829.999L801.249 179.612C793.343 179.607 786.152 179.567 780.935 179.507C778.326 179.477 776.209 179.442 774.743 179.404C774.011 179.385 773.437 179.364 773.044 179.344C772.849 179.333 772.692 179.323 772.579 179.311C772.526 179.306 772.467 179.299 772.417 179.288C772.395 179.284 772.349 179.273 772.3 179.253C772.277 179.244 772.225 179.221 772.17 179.177C772.125 179.141 772.007 179.032 771.984 178.844L771.983 178.845C771.983 178.841 771.984 178.836 771.983 178.832C771.983 178.825 771.981 178.818 771.98 178.811L771.983 178.811C771.982 178.777 771.982 178.74 771.983 178.725C771.985 178.712 771.989 178.691 771.99 178.683C771.994 178.666 771.997 178.652 771.999 178.644C772.003 178.629 772.008 178.612 772.012 178.6C772.02 178.572 772.031 178.536 772.045 178.495C772.073 178.412 772.114 178.292 772.168 178.139C772.276 177.831 772.437 177.379 772.646 176.791C773.067 175.614 773.687 173.89 774.486 171.677C776.085 167.251 778.399 160.87 781.256 153.008C786.97 137.284 794.855 115.636 803.53 91.8613C820.87 44.3215 835.269 4.86266 835.52 4.17183L835.521 4.16793C835.596 3.96785 835.744 3.83351 835.891 3.74312C836.036 3.65357 836.215 3.58466 836.415 3.52828C836.816 3.41535 837.408 3.32212 838.254 3.24019C839.954 3.07552 842.785 2.94909 847.417 2.85348C856.688 2.6621 873.231 2.59273 902.5 2.59273H902.853L906.981 14.1748ZM868.61 52.5927C868.462 52.5927 868.355 52.6539 868.303 52.6894C868.246 52.7279 868.205 52.7708 868.179 52.8007C868.126 52.8611 868.081 52.9306 868.045 52.9912C867.971 53.1167 867.888 53.2868 867.8 53.4873C867.62 53.8935 867.391 54.4833 867.117 55.2285C866.569 56.722 865.835 58.8763 864.969 61.5283C863.236 66.8349 860.967 74.1525 858.581 82.2001C853.82 98.259 849.719 112.213 849.466 113.218C849.408 113.441 849.36 113.709 849.414 113.98C849.474 114.28 849.645 114.525 849.91 114.71C850.158 114.882 850.485 115.002 850.88 115.095C851.28 115.189 851.788 115.263 852.421 115.323C854.941 115.561 859.714 115.593 868.5 115.593C875.867 115.593 880.611 115.523 883.479 115.33C884.906 115.234 885.906 115.106 886.541 114.929C886.85 114.842 887.136 114.727 887.337 114.552C887.444 114.458 887.543 114.333 887.596 114.173C887.65 114.008 887.642 113.844 887.599 113.699V113.697L884.93 104.594C883.38 99.2939 881.295 92.1543 879.05 84.4531C874.549 69.0487 870.682 55.6703 870.434 54.7168C870.294 54.1802 870.055 53.6807 869.768 53.3046C869.624 53.1167 869.459 52.9459 869.275 52.8193C869.117 52.71 868.923 52.6189 868.705 52.5976L868.61 52.5927Z" fill="#FF721B"/>
<path d="M1037.38 2.71773L1109.51 87.2334L1109.93 2.59273H1163V179.598L1162.5 179.592L1113.11 179.092L1112.88 179.09L1112.73 178.92L1076.68 137.26C1066.77 125.806 1057.67 115.438 1051 107.963C1047.66 104.225 1044.94 101.212 1043.02 99.1494C1042.06 98.1174 1041.31 97.3265 1040.78 96.8027C1040.72 96.7409 1040.66 96.6845 1040.61 96.6308C1040.6 96.6629 1040.6 96.6962 1040.6 96.7304C1040.55 97.3829 1040.5 98.381 1040.46 99.7812C1040.37 102.58 1040.29 106.965 1040.22 113.355C1040.09 126.135 1040 146.928 1040 179.093V179.593H987V2.59273H987.5L1037 2.54195H1037.23L1037.38 2.71773Z" fill="#FF721B"/>
<path d="M58 133.593H148V179.593H0V2.59273H58V133.593Z" fill="#FF721B"/>
<path d="M324 45.5927H228V68.5957L309.494 69.0957L310.006 110.593H228V136.593H325V179.593H170V2.59273H324V45.5927Z" fill="#FF721B"/>
<path fill-rule="evenodd" clip-rule="evenodd" d="M625.5 2.59273L678.25 2.61226C699.929 2.61726 713.435 2.68689 722.241 2.91207C731.04 3.13707 735.18 3.51721 738.106 4.15328L738.861 4.32906C742.756 5.28308 748.341 7.36986 751.734 9.17086C755.353 11.0912 760.541 14.8183 763.297 17.4726C765.874 19.9552 769.528 24.3906 771.73 27.6806L772.151 28.3232C774.271 31.6545 777.019 37.3107 778.253 40.9306L778.598 41.9658C780.229 47.0221 780.5 50.513 780.5 62.5927C780.5 74.6772 780.133 78.7362 778.583 83.2548L778.582 83.2539C777.547 86.2996 775.8 90.5906 774.698 92.8144C773.589 95.0539 770.818 99.3119 768.537 102.286C766.222 105.302 761.403 109.827 757.789 112.381C754.18 114.932 748.303 118.133 744.679 119.519C743.102 120.12 741.817 120.587 739.927 120.949C738.046 121.31 735.578 121.565 731.622 121.762C723.76 122.152 709.938 122.314 683 122.586V179.593H625V2.59176L625.5 2.59273ZM682 44.5927V81.6005L682.508 81.5927C697.031 81.3578 704.843 81.1755 709.32 80.8291C711.558 80.6559 712.994 80.4391 714.031 80.1445C715.089 79.8439 715.723 79.4638 716.357 78.9941C717.87 77.8696 719.993 75.8182 721.094 74.3994L721.095 74.4003C722.535 72.5513 723.298 69.4627 723.648 64.6289C723.858 61.6345 723.904 59.6711 723.633 57.9736C723.393 56.4743 722.91 55.2025 722.12 53.6259L721.763 52.9306C720.298 50.1338 718.002 47.6578 715.731 46.4697L715.444 46.3232C712.658 44.9472 709.596 44.6229 699.451 44.5947L682 44.5927Z" fill="#FF721B"/>
</g>
<path id="Subtract_2" d="M1227.2 5.80387L1227.25 6.22904C1227.44 8.42132 1227.64 15.0385 1227.74 22.3214L1227.78 25.7159C1227.86 34.2853 1228.22 43.1377 1228.6 46.2209L1228.67 46.759C1229.13 49.5238 1230.39 52.0528 1232.61 54.5533L1233.06 55.0531L1233.06 55.0541C1235.05 57.1774 1237.81 61.1363 1241.78 68.6897L1242.59 70.249L1242.64 70.3492V70.4611L1242.9 123.248C1243.03 147.751 1243.06 160.991 1242.84 168.312C1242.73 171.966 1242.56 174.174 1242.29 175.579C1242.02 176.997 1241.65 177.663 1241.1 178.178L1241.11 178.179C1240.11 179.118 1238.89 179.577 1235.61 179.822C1232.34 180.067 1226.87 180.104 1217.23 180.089C1206.67 180.074 1201.22 180.055 1198.23 179.759C1196.73 179.61 1195.76 179.388 1195.06 179.018C1194.34 178.639 1193.95 178.131 1193.55 177.574C1193.12 176.978 1192.83 176.036 1192.62 174.348C1192.4 172.642 1192.25 170.092 1192.15 166.212C1191.96 158.448 1191.97 145.29 1192.09 122.745V122.716C1192.22 96.6363 1192.29 83.5548 1192.64 76.3702C1192.82 72.7787 1193.06 70.6319 1193.43 69.0599C1193.8 67.4728 1194.29 66.4836 1194.92 65.2256L1195.21 64.6816C1196.71 61.881 1199.54 57.9261 1201.73 55.5588L1201.73 55.5578C1202.86 54.335 1203.97 52.9413 1204.83 51.6852C1205.71 50.41 1206.3 49.3332 1206.45 48.7287L1206.51 48.4017C1206.58 47.9698 1206.65 47.2241 1206.73 46.1914C1206.83 44.8375 1206.93 43.0384 1207.02 40.9216C1207.22 36.6883 1207.4 31.1924 1207.51 25.4596L1207.61 21.2453C1207.73 17.1377 1207.87 13.3924 1208.03 10.4149C1208.13 8.43086 1208.24 6.7833 1208.35 5.59473C1208.41 5.00138 1208.46 4.51554 1208.52 4.15722C1208.55 3.97885 1208.57 3.8232 1208.6 3.69868C1208.63 3.60154 1208.67 3.44211 1208.76 3.31966L1208.82 3.24897C1208.96 3.09396 1209.16 2.99787 1209.34 2.93279C1209.55 2.85095 1209.83 2.78089 1210.16 2.71776C1210.82 2.59104 1211.78 2.48049 1213.11 2.38882C1215.76 2.20515 1219.93 2.09229 1226.24 2.09229H1226.73L1227.2 5.80387Z" fill="#FF721B"/>
<g id="Subtract_3">
<path d="M1730 0.0982537C1736.61 0.0381612 1745.18 0.438611 1749.07 0.993762H1749.07C1752.94 1.55598 1759.02 2.73916 1762.62 3.63341C1766.23 4.52947 1771.87 6.39715 1775.19 7.79747C1778.53 9.20216 1784.39 12.4186 1788.23 14.9508C1792.92 18.0332 1796.74 21.6004 1799.67 25.6549L1800.13 26.3004C1802.44 29.6268 1805.05 34.3942 1806.11 37.275L1806.32 37.8873C1807.4 41.1158 1808.53 46.8693 1809.5 57.4225L1809.55 57.9684L1755.5 57.9488L1755 57.9479L1754.98 54.7018C1754.98 54.0352 1754.72 52.9362 1754.27 51.6783C1753.82 50.4354 1753.21 49.0907 1752.55 47.9498C1750.9 45.1242 1748.85 43.2478 1746.04 41.9733C1743.76 40.9376 1739.43 39.7794 1736.44 39.4244C1733.47 39.071 1728.35 39.2778 1725.09 39.8893C1721.82 40.505 1717.65 41.7747 1715.83 42.6852L1715.83 42.6842C1714.96 43.1277 1714 43.8347 1713.16 44.6188C1712.32 45.4073 1711.65 46.2403 1711.31 46.9205C1710.96 47.6172 1710.69 48.5626 1710.54 49.526C1710.38 50.4918 1710.36 51.4292 1710.48 52.11C1710.6 52.7909 1710.95 53.6754 1711.44 54.5504C1711.92 55.4223 1712.51 56.2449 1713.09 56.8121C1713.65 57.3668 1714.84 58.1337 1716.33 58.9186C1717.81 59.6957 1719.54 60.4655 1721.17 61.0367C1724.43 62.1945 1735.2 64.9092 1745.11 67.0602C1755.01 69.2117 1768.08 72.5349 1774.15 74.4615C1780.49 76.4579 1787.77 79.5937 1791.27 81.8268L1791.27 81.8277C1794.39 83.8332 1798.9 87.4415 1801.68 90.1402L1802.21 90.6676L1802.21 90.6686C1804.9 93.4078 1808.19 97.921 1809.53 100.732C1810.79 103.348 1812.22 107.706 1812.87 110.762L1812.99 111.356L1812.99 111.357C1813.56 114.419 1814.01 119.619 1813.99 122.949L1813.99 122.95C1813.98 126.291 1813.28 132.176 1812.46 136.052C1811.63 139.94 1809.6 145.938 1807.94 149.414C1806.28 152.905 1802.54 158.278 1799.61 161.381L1799.61 161.38C1796.7 164.487 1791.84 168.538 1788.76 170.406C1785.7 172.264 1780.05 174.967 1776.18 176.426C1772.31 177.884 1765.98 179.761 1762.1 180.587C1758.45 181.373 1749.89 182.242 1742.48 182.603L1741.02 182.668C1732.48 183.018 1722.48 182.748 1715.45 181.985C1709.1 181.293 1699.86 179.71 1694.88 178.463C1689.9 177.215 1682.23 174.433 1677.82 172.288C1673.41 170.132 1667.52 166.267 1664.7 163.676C1661.9 161.088 1658.15 156.551 1656.35 153.566C1654.65 150.753 1652.49 145.457 1651.35 141.373L1651.14 140.573C1650.06 136.409 1649.06 130.071 1648.63 119.969L1648.61 119.453L1649.12 119.449L1703 118.944L1703.01 122.197V122.199C1703.01 123.647 1703.5 126.637 1704.1 128.813C1704.39 129.855 1705 131.155 1705.76 132.409C1706.52 133.662 1707.4 134.834 1708.22 135.63C1710.09 137.444 1713.25 139.089 1716.62 139.954C1719.59 140.718 1726.3 141.338 1731.5 141.318C1737.28 141.298 1743.16 140.64 1746.61 139.638C1748.36 139.131 1749.91 138.51 1751.13 137.853C1752.36 137.188 1753.2 136.514 1753.59 135.921C1753.97 135.366 1754.33 134.469 1754.59 133.451C1754.86 132.439 1755.03 131.355 1755.03 130.446L1755.02 130.005C1754.98 128.995 1754.8 128.134 1754.44 127.333C1754.03 126.414 1753.39 125.541 1752.42 124.595C1751.71 123.897 1750.44 123.03 1748.96 122.2C1747.48 121.374 1745.82 120.604 1744.34 120.09C1741.34 119.051 1731.47 116.507 1722.39 114.446C1713.31 112.385 1701.48 109.402 1696.11 107.807C1690.73 106.221 1683.05 103.271 1679.03 101.255C1674.32 98.8938 1670.01 95.7263 1665.47 91.3111L1664.56 90.4117C1659.17 85.0294 1656.85 81.8099 1655.19 77.3736C1653.99 74.1744 1652.52 68.2902 1651.91 64.274L1651.91 64.2731C1651.3 60.2534 1651.09 54.4761 1651.45 51.3893L1651.53 50.7965C1651.94 47.7278 1652.88 43.1755 1653.68 40.3131L1653.85 39.7301C1654.73 36.7555 1656.16 32.9393 1657.15 30.9733L1657.15 30.9713C1658.23 28.8577 1661.02 25.0305 1663.38 22.4508C1665.75 19.858 1670.16 16.1501 1673.23 14.1969C1676.29 12.2504 1681.7 9.44624 1685.31 7.96544C1688.91 6.48611 1695.01 4.48885 1698.88 3.51329C1702.74 2.54965 1708.61 1.40506 1711.94 0.982043C1715.27 0.548036 1723.39 0.158293 1730 0.0982537Z" fill="#FF721B"/>
<path d="M1426 45.9488H1330V68.9518L1411.49 69.4518L1412.01 110.949H1330V136.949H1427V179.949H1272V2.94884H1426V45.9488Z" fill="#FF721B"/>
<path fill-rule="evenodd" clip-rule="evenodd" d="M1515.5 2.94884C1539.84 2.94884 1554.66 3.01121 1564.2 3.23888C1573.74 3.46644 1578.05 3.85848 1581.35 4.52794C1585.65 5.39693 1592.53 7.77154 1596.66 9.81993C1601.28 12.1023 1606.34 15.6831 1609.79 19.1031L1610.38 19.7018C1613.37 22.8094 1616.95 27.5923 1618.61 30.7233L1618.61 30.7242C1620.37 34.0452 1622.51 39.4813 1623.38 42.8219C1624.2 45.9632 1624.88 51.7353 1624.98 56.0943L1624.99 56.9459C1625 61.3774 1624.3 67.7235 1623.42 71.0748C1622.55 74.4169 1620.4 79.8039 1618.63 83.0856L1618.63 83.0875C1616.84 86.3834 1612.67 91.6045 1609.34 94.733C1606.02 97.8589 1600.68 101.653 1597.46 103.18H1597.46C1595.89 103.92 1594.47 104.677 1593.44 105.296C1592.92 105.607 1592.52 105.877 1592.24 106.088C1592.15 106.159 1592.08 106.22 1592.03 106.268C1592.09 106.407 1592.18 106.606 1592.31 106.862C1592.56 107.384 1592.93 108.133 1593.41 109.085C1594.37 110.987 1595.77 113.692 1597.49 116.999C1600.93 123.613 1605.68 132.634 1610.91 142.463L1614.74 149.655C1618.44 156.639 1621.77 162.93 1624.35 167.858C1626.08 171.143 1627.48 173.824 1628.44 175.702C1628.93 176.64 1629.3 177.38 1629.56 177.894C1629.69 178.151 1629.79 178.354 1629.85 178.5C1629.89 178.571 1629.92 178.634 1629.94 178.683C1629.95 178.707 1629.96 178.735 1629.97 178.761C1629.97 178.775 1629.98 178.795 1629.98 178.817C1629.99 178.831 1630 178.883 1630 178.949C1630 179.235 1629.78 179.369 1629.75 179.388C1629.69 179.426 1629.63 179.445 1629.6 179.454C1629.53 179.473 1629.46 179.485 1629.4 179.494C1629.26 179.513 1629.07 179.529 1628.82 179.544C1628.33 179.573 1627.57 179.6 1626.52 179.622C1624.41 179.665 1621.09 179.693 1616.24 179.7C1606.54 179.714 1590.7 179.643 1566.16 179.448L1565.85 179.446L1535.15 116.44L1515 115.96V179.949H1457V2.94884H1515.5ZM1514 76.9488H1514.5C1529.03 76.9488 1538.81 76.8342 1545.19 76.649C1548.38 76.5564 1550.73 76.4455 1552.41 76.3229C1554.06 76.2015 1555.1 76.0658 1555.64 75.9088C1556.66 75.6105 1557.95 74.9664 1559.2 74.1852C1560.45 73.4012 1561.7 72.4572 1562.64 71.5358C1563.58 70.6096 1564.54 69.3433 1565.32 68.0533C1566.1 66.7673 1566.74 65.4201 1567.02 64.3238C1567.57 62.208 1567.77 58.9859 1567.45 57.1158C1567.14 55.2557 1566 52.2764 1564.89 50.4401C1564.29 49.4565 1563.3 48.3881 1562.17 47.4313C1561.17 46.5911 1560.04 45.817 1558.93 45.2467L1558.46 45.0152C1554.8 43.3113 1552.11 43.0213 1537.36 42.9752L1534.25 42.9684L1514 42.9479V76.9488Z" fill="#FF721B"/>
</g>
</g>
</svg>
